<svg width="132" height="109" viewBox="0 0 132 109" fill="none" xmlns="http://www.w3.org/2000/svg">
<path fill-rule="evenodd" clip-rule="evenodd" d="M0.75 103.312C0.75 101.87 1.32288 100.487 2.34261 99.4676C3.36234 98.4479 4.74539 97.875 6.1875 97.875H82.3125C83.7546 97.875 85.1377 98.4479 86.1574 99.4676C87.1771 100.487 87.75 101.87 87.75 103.312C87.75 104.755 87.1771 106.138 86.1574 107.157C85.1377 108.177 83.7546 108.75 82.3125 108.75H6.1875C4.74539 108.75 3.36234 108.177 2.34261 107.157C1.32288 106.138 0.75 104.755 0.75 103.312ZM0.75 70.6875C0.75 69.2454 1.32288 67.8623 2.34261 66.8426C3.36234 65.8229 4.74539 65.25 6.1875 65.25H125.812C127.255 65.25 128.638 65.8229 129.657 66.8426C130.677 67.8623 131.25 69.2454 131.25 70.6875C131.25 72.1296 130.677 73.5127 129.657 74.5324C128.638 75.5521 127.255 76.125 125.812 76.125H6.1875C4.74539 76.125 3.36234 75.5521 2.34261 74.5324C1.32288 73.5127 0.75 72.1296 0.75 70.6875ZM0.75 38.0625C0.75 36.6204 1.32288 35.2373 2.34261 34.2176C3.36234 33.1979 4.74539 32.625 6.1875 32.625H125.812C127.255 32.625 128.638 33.1979 129.657 34.2176C130.677 35.2373 131.25 36.6204 131.25 38.0625C131.25 39.5046 130.677 40.8877 129.657 41.9074C128.638 42.9271 127.255 43.5 125.812 43.5H6.1875C4.74539 43.5 3.36234 42.9271 2.34261 41.9074C1.32288 40.8877 0.75 39.5046 0.75 38.0625ZM44.25 5.4375C44.25 3.99539 44.8229 2.61234 45.8426 1.59261C46.8623 0.572879 48.2454 0 49.6875 0H125.812C127.255 0 128.638 0.572879 129.657 1.59261C130.677 2.61234 131.25 3.99539 131.25 5.4375C131.25 6.87961 130.677 8.26266 129.657 9.28239C128.638 10.3021 127.255 10.875 125.812 10.875H49.6875C48.2454 10.875 46.8623 10.3021 45.8426 9.28239C44.8229 8.26266 44.25 6.87961 44.25 5.4375Z" fill="white"/>
<path d="M105.958 87.6963L100.042 93.5537C99.261 94.322 98.2049 94.7533 97.1042 94.7533C96.0034 94.7533 94.9473 94.322 94.1667 93.5537L44.6667 44.6313C43.3117 45.0199 41.9105 45.2279 40.5 45.25C37.8471 45.2481 35.233 44.6193 32.875 43.4159C30.5169 42.2124 28.4832 40.4691 26.9428 38.3308C25.4023 36.1926 24.3997 33.7212 24.0184 31.1221C23.637 28.523 23.8878 25.8713 24.75 23.3875L35.3333 33.865L37.5417 31.6788L43.4583 25.8212L45.6667 23.635L35.0833 13.1575C37.5922 12.3039 40.2707 12.0556 42.896 12.4332C45.5214 12.8107 48.0178 13.8033 50.1776 15.3283C52.3375 16.8534 54.0984 18.8668 55.314 21.2012C56.5296 23.5356 57.1648 26.1236 57.1667 28.75C57.1444 30.1464 56.9342 31.5336 56.5417 32.875L105.958 81.88C106.734 82.6529 107.17 83.6984 107.17 84.7881C107.17 85.8779 106.734 86.9234 105.958 87.6963V87.6963ZM25.0417 81.88C24.2656 82.6529 23.83 83.6984 23.83 84.7881C23.83 85.8779 24.2656 86.9234 25.0417 87.6963L30.9583 93.5537C31.739 94.322 32.7951 94.7533 33.8958 94.7533C34.9966 94.7533 36.0527 94.322 36.8333 93.5537L59.625 71.0312L47.8333 59.3575L25.0417 81.88ZM98.8333 12.25L82.1667 20.5V28.75L73.125 37.7013L81.4583 45.9513L90.5 37H98.8333L107.167 20.5L98.8333 12.25Z" fill="#37AFF2"/>
</svg>
