<svg width="40" height="41" viewBox="0 0 40 41" fill="none" xmlns="http://www.w3.org/2000/svg">
<path d="M0 30.125H12.2945V33.4583H0V30.125Z" fill="#D746B7"/>
<path d="M31.5399 15.125H0V18.4583H31.5045C32.9311 18.4583 34.2992 19.0729 35.3079 20.1669C36.3167 21.2608 36.8834 22.7446 36.8834 24.2917C36.8834 25.8388 36.3167 27.3225 35.3079 28.4165C34.2992 29.5104 32.9311 30.125 31.5045 30.125H22.7878L26.7619 25.815L24.5889 23.4583L16.9049 31.7917L24.5889 40.125L26.7619 37.7683L22.7878 33.4583H31.5552C33.797 33.4561 35.9461 32.4882 37.5298 30.7676C39.1135 29.0469 40.002 26.7145 40 24.2833C39.998 21.8522 39.1055 19.5215 37.5189 17.804C35.9323 16.0864 33.7816 15.1228 31.5399 15.125V15.125Z" fill="#D746B7"/>
<path d="M0 0.125H36.8833V3.45833H0V0.125Z" fill="#D746B7"/>
</svg>
